<svg width="118" height="73" viewBox="0 0 118 73" fill="none" xmlns="http://www.w3.org/2000/svg">
<path fill-rule="evenodd" clip-rule="evenodd" d="M64 27C64 12.0883 76.0883 0 91 0C98.9033 0 107.562 3.08794 112.5 8.5C114.325 10.5 113.914 13.5337 113 15C111.637 17.1883 107.71 17.9601 104.734 15.6871C104.576 15.5661 104.433 15.4244 104.3 15.2763C100.36 10.9009 96.2136 8 91 8C80.7968 8 72.4721 16.0425 72.0194 26.1339C72.0194 28.5318 72.0194 31 72 33C72 33 77.2104 29.7256 81.5 28.5C88.5 26.5 96 26.1339 96 26.1339C105 26.1339 116.5 29.5 118 45.5C118 56.8218 108.822 66 97.5 66H91C83.752 66 77.1709 63.144 72.321 58.496C72.321 59.464 72.9522 61.8228 77.031 65.1277C77.3388 65.3771 77.6359 65.6578 77.7724 66.0297C78.3057 67.4815 77.7665 69.8015 77 71.0318C75.5137 73.4175 70.6707 73.2923 69 71.0318C67.5319 69.0455 66.6024 66.8507 65.7187 64.5C64.6077 61.5449 64 58.3434 64 55V27ZM72 46C72 47.9237 72.6168 49.6419 75.0369 51.8136C78.6424 55.049 83.1984 57.2914 87.9725 58.1131C89.6272 58.3979 91.7754 58.496 96 58.496C105.5 58.496 110 53.4036 110 46.5C110 38.5 104 34 95.5 33.5C95.5 33.5 88.5 33.9682 82.5 36C76.5 38.0318 72 42.5 72 46Z" fill="black"/>
<path fill-rule="evenodd" clip-rule="evenodd" d="M54 27C54 12.0883 41.9117 0 27 0C19.0967 0 10.4377 3.08794 5.5 8.5C3.6753 10.5 4.08646 13.5337 5 15C6.36333 17.1883 10.2902 17.9601 13.2656 15.6871C13.424 15.5661 13.5667 15.4244 13.7001 15.2763C17.6402 10.9009 21.7864 8 27 8C37.2032 8 45.5279 16.0425 45.9806 26.1339C45.9806 28.5318 45.9806 31 46 33C46 33 40.7896 29.7256 36.5 28.5C29.5 26.5 22 26.1339 22 26.1339C13 26.1339 1.5 29.5 0 45.5C0 56.8218 9.17816 66 20.5 66H27C34.248 66 40.8291 63.144 45.679 58.496C45.679 59.464 45.0478 61.8228 40.969 65.1277C40.6612 65.3771 40.3641 65.6578 40.2276 66.0297C39.6943 67.4815 40.2335 69.8015 41 71.0318C42.4863 73.4175 47.3293 73.2923 49 71.0318C50.4681 69.0455 51.3976 66.8507 52.2813 64.5C53.3923 61.5449 54 58.3434 54 55V27ZM46 46C46 47.9237 45.3832 49.6419 42.9631 51.8136C39.3576 55.049 34.8016 57.2914 30.0275 58.1131C28.3728 58.3979 26.2246 58.496 22 58.496C12.5 58.496 8 53.4036 8 46.5C8 38.5 14 34 22.5 33.5C22.5 33.5 29.5 33.9682 35.5 36C41.5 38.0318 46 42.5 46 46Z" fill="black"/>
</svg>
