<svg width="37" height="24" viewBox="0 0 37 24" fill="none" xmlns="http://www.w3.org/2000/svg">
<path fill-rule="evenodd" clip-rule="evenodd" d="M16.742 8.55202C16.742 6.36065 16.4262 4.20591 14.5308 2.52355C12.4899 0.622943 10.2913 0 7.61345 0C5.4545 0 3.19926 0.637805 1.73738 1.82256C0.950392 2.46037 1.04193 3.58742 1.57944 4.06572C2.02727 4.46422 3.31682 4.6265 3.9486 4.06572C5.08688 3.30133 6.15981 2.94414 7.89719 2.52355C9.79252 2.06472 12.3212 2.10296 13.7411 4.06572C14.746 5.4547 14.6888 6.72946 14.5308 7.85104L14.275 9.37105C14.2458 9.54469 14.0528 9.63689 13.8942 9.5603C13.5568 9.39733 13.1962 9.26403 12.8161 9.16486L8.55272 8.05252C4.28259 6.93843 0 9.76446 0 13.6964C0 17.499 4.02273 20.3034 8.21132 19.4207L12.5355 18.5095C13.0678 18.3973 13.5663 18.2187 14.0208 17.985C14.1333 17.9271 14.271 17.9557 14.3321 18.0665C14.4908 18.3543 14.7323 18.9456 14.5308 19.6276C14.2896 20.444 12.8867 21.1227 12.1383 21.8211C12.1033 21.8538 12.0737 21.892 12.052 21.9347C11.4146 23.1882 12.67 24.7937 14.6888 23.5531C15.4925 23.0592 16.3202 21.6361 16.679 19.8372C16.7253 19.6052 16.742 19.3693 16.742 19.1328C16.742 14.8582 16.742 8.55202 16.742 8.55202ZM7.82291 10.2338C5.20312 9.55029 1.26355 11.2841 1.26355 13.6964C1.26355 16.0294 5.04369 17.7499 7.61345 17.2083L11.9376 16.2971C13.2444 16.0217 14.1663 14.9904 14.1663 13.8041C14.1663 12.6683 13.3198 11.668 12.0863 11.3461L7.82291 10.2338Z" fill="black"/>
<path fill-rule="evenodd" clip-rule="evenodd" d="M20.2103 8.55202C20.2103 6.36065 20.5262 4.20591 22.4216 2.52355C24.4625 0.622943 26.6611 0 29.3389 0C31.4979 0 33.7531 0.637805 35.215 1.82256C36.002 2.46037 35.9105 3.58742 35.373 4.06572C34.9251 4.46422 33.6356 4.6265 33.0038 4.06572C31.8655 3.30133 30.7926 2.94414 29.0552 2.52355C27.1599 2.06472 24.6312 2.10296 23.2113 4.06572C22.2064 5.4547 22.2636 6.72946 22.4216 7.85104L22.6774 9.37105C22.7066 9.54469 22.8996 9.63689 23.0582 9.5603C23.3955 9.39733 23.7562 9.26403 24.1362 9.16486L28.3997 8.05252C32.6698 6.93843 36.9524 9.76446 36.9524 13.6964C36.9524 17.499 32.9297 20.3034 28.7411 19.4207L24.4169 18.5095C23.8846 18.3973 23.3861 18.2187 22.9316 17.985C22.8191 17.9271 22.6814 17.9557 22.6203 18.0665C22.4616 18.3543 22.2201 18.9456 22.4216 19.6276C22.6628 20.444 24.0657 21.1227 24.8141 21.8211C24.8491 21.8538 24.8787 21.892 24.9004 21.9347C25.5378 23.1882 24.2824 24.7937 22.2636 23.5531C21.4599 23.0592 20.6322 21.6361 20.2733 19.8372C20.2271 19.6052 20.2103 19.3693 20.2103 19.1328C20.2103 14.8582 20.2103 8.55202 20.2103 8.55202ZM29.1295 10.2338C31.7493 9.55029 35.6888 11.2841 35.6888 13.6964C35.6888 16.0294 31.9087 17.7499 29.3389 17.2083L25.0147 16.2971C23.708 16.0217 22.786 14.9904 22.786 13.8041C22.786 12.6683 23.6326 11.668 24.8661 11.3461L29.1295 10.2338Z" fill="black"/>
</svg>
